<?xml version="1.0" standalone="no"?><!DOCTYPE svg PUBLIC "-//W3C//DTD SVG 1.1//EN" "http://www.w3.org/Graphics/SVG/1.1/DTD/svg11.dtd"><svg t="1631429922175" class="icon" viewBox="0 0 1024 1024" version="1.1" xmlns="http://www.w3.org/2000/svg" p-id="11088" xmlns:xlink="http://www.w3.org/1999/xlink" width="200" height="200"><defs><style type="text/css"></style></defs><path d="M512.08334844 62.00020127A450.07932128 450.07932128 0 0 0 165.62534786 799.34834727l191.98230556-327.47317207a31.12464815 31.12464815 0 0 1 3.03998819-4.0264752l0.86569188-1.24820684a26.59486377 26.59486377 0 0 1 3.26144444-3.34197422 22.02481583 22.02481583 0 0 1 1.87231025-2.01323672l0.92608945-0.7046332 1.08714815-0.7046332a38.11058174 38.11058174 0 0 1 51.80059424 6.03971191l77.79148769 92.60891368 91.21978038-164.09896875-67.52397744 18.66270937a38.2515082 38.2515082 0 0 1-20.37396094-73.58382158l150.67067607-41.61361465a42.39877676 42.39877676 0 0 1 50.71344698 34.92966709l37.02343271 146.16102481a38.2515082 38.2515082 0 1 1-74.00660098 18.66270938l-14.53557305-57.41752677-113.36539042 203.96106651a39.982892 39.982892 0 0 1-3.42250313 4.97269599 38.03005195 38.03005195 0 0 1-33.21841465 14.39464659 33.4398709 33.4398709 0 0 1-5.43574072-1.00661836h-2.0132376c-1.24820684 0-2.33535498-0.92608945-3.58356182-1.40926641a36.80197734 36.80197734 0 0 1-3.66409247-1.55019288h-0.46304385l-2.0132376-1.40926552c-1.24820684-0.8656919-2.57694346-1.71125156-3.80501806-2.7178708l-2.25482609-2.17429629c-0.8656919-0.84555967-1.87231026-1.63072177-2.63734101-2.57694346l-79.03969453-94.19937099L221.25109326 855.41700518A449.99879239 449.99879239 0 1 0 512.08334844 62.00020127z" p-id="11089"></path></svg>