<?xml version="1.0" standalone="no"?><!DOCTYPE svg PUBLIC "-//W3C//DTD SVG 1.1//EN" "http://www.w3.org/Graphics/SVG/1.1/DTD/svg11.dtd"><svg t="1631882854665" class="icon" viewBox="0 0 1490 1024" version="1.1" xmlns="http://www.w3.org/2000/svg" p-id="19596" xmlns:xlink="http://www.w3.org/1999/xlink" width="291.015625" height="200"><defs><style type="text/css"></style></defs><path d="M1056.990461 338.935599C1038.653819 320.785116 1008.96149 320.785116 990.578308 338.935599L883.536997 445.97691 779.334607 341.727981C761.184124 323.577498 731.677954 323.577498 713.480931 341.727981 695.283908 359.878464 695.283908 389.663873 713.480931 407.814356L817.68332 511.597888 712.131279 617.243008C693.794637 635.393491 693.794637 665.1789 712.131279 683.79478 730.467922 701.945263 760.20679 701.945263 778.543432 683.79478L884.095473 578.14966 988.297863 682.398589C1006.494885 700.549072 1036.001056 700.549072 1054.151539 682.398589 1072.395101 664.248106 1072.395101 634.462697 1054.151539 616.312214L949.949149 512.528682 1056.990461 405.487371C1075.373642 386.87149 1075.373642 357.551479 1056.990461 338.935599L1056.990461 338.935599ZM1396.264878 837.841189C1396.264878 889.034859 1354.565306 930.92059 1303.092397 930.92059L487.297986 930.92059 107.952887 511.132491 485.948335 93.20598 1303.092397 93.20598C1354.565306 93.20598 1396.264878 135.091711 1396.264878 186.285381L1396.264878 837.841189 1396.264878 837.841189ZM1303.092397 0.126579 467.937471 0.126579C454.906355-0.804215 441.596 3.384358 431.636504 13.157695L13.430755 475.762319C3.610878 485.535656-0.624234 498.566772 0.073861 511.132491-0.624234 524.163607 3.610878 537.194723 13.430755 546.96806L431.636504 1009.572684C440.758286 1018.415227 452.672449 1023.069197 464.586612 1023.069197L464.586612 1023.999991 1303.092397 1023.999991C1405.991675 1023.999991 1489.437358 940.693927 1489.437358 837.841189L1489.437358 186.285381C1489.437358 83.432643 1405.991675 0.126579 1303.092397 0.126579L1303.092397 0.126579Z" p-id="19597"></path></svg>